<?xml version="1.0" encoding="UTF-8"?>
<svg id="b" data-name="single color smiling" xmlns="http://www.w3.org/2000/svg" viewBox="0 0 595.28 595.28">
  <defs>
    <style>
      .f {
        fill: #000;
        stroke-width: 0px;
      }
    </style>
  </defs>
  <path class="f" d="M255.45,220.37c-1.12.22-2.47.52-3.97.85-4.64-27.61-6.42-79.98,1.42-80.31,7.33-.31,19.86,41.85,19.86,41.85,0,0,2.84-82.99,28.37-100.01,5.23-3.49,17.73,41.85,17.73,41.85,0,0,27.66-75.9,74.48-101.43,7.69-4.2-52.66,89.81-74.22,193.46-5.98-.39-11.95-.6-17.88-.6-15.98,0-31.39,1.46-45.8,4.34ZM532.08,47.34c-2.85,0-65.39,109.68-134.15,158.04-47.86,33.65-118.2,41.65-126.3,99.58-4.23,30.27,38.18,51.61,67.71,58.1,6.42,1.41,13.04,2.04,19.68,2.04,45.04,0,91.59-29.03,92.44-41.02.61-8.54-60.2-12.24-60.2-12.24,0,0,.48.01,1.37.01,9.83,0,70.08-1.76,94.68-44.26.27-.47-1.52-.65-4.54-.65-11.87,0-42.77,2.87-42.77,2.87,0,0,44.05-7.41,76.98-79.98.82-1.82-2.49-2.47-7.71-2.47-13.52,0-39.78,4.4-39.78,4.4,0,0,51.1-44.12,62.68-144.12.02-.2,0-.3-.09-.3ZM556.33,426.04c7.57-14.39,4.43-29.6-12.39-34.11-.15-.04-.3-.06-.44-.1.75,2.53,1.29,5.19,1.57,7.99,1.88,17.26-9.35,34.98-28.44,32.26-19.54-3.38-24.66-22.25-12.3-36.79,1.75-2.21,3.77-4.14,5.99-5.79-5.23-1.54-11.06-1.27-16.9-.54-1.9,32.26-11.3,64.4-24.03,89.5-26.73,52.69-72.24,93.77-90.24,93.77-1.67,0-3.11-.36-4.27-1.09-9.39-5.94-8.54-25-7.32-45.73,0,0-20.35,2.72-49.65,2.72-5.14,0-10.57-.08-16.2-.28-35.86-1.26-59.76-9.15-59.76-9.15-14.47,28.34-34.95,53.06-50.73,53.06-.18,0-.36,0-.54,0-.08,0-.16,0-.24,0-20.95,0-8.32-74.43-27.15-84.76-12.8-6.1-61.34-31.13-82.85-45.15-13.09-8.53-21.99-17.6-18.94-20.26,7.63,2.26,14.72,3.22,21.27,3.22,36.76,0,56.2-30.31,56.2-30.31,0,0-23.29,12.94-54.25,12.94-15.25,0-32.37-3.14-49.48-12.52-6.01-6.18-3.87-68.29,4.27-77.44,8.13-9.15,47.26-.04,62.43-12.86,54.04-45.68,70.59-47.8,70.59-47.8,0,0-1.35-42.21,8.4-44.65.37-.09.78-.14,1.21-.14,11,0,41.37,28.47,41.37,28.47,0,0,25.16-6.55,34.3-8.38,13.97-2.79,28.61-4.11,43.45-4.11,8.32,0,16.69.43,25.04,1.23-12.64,6.23-24.88,13.02-35.26,21.29-18.11,14.44-28.34,31.7-31.28,52.75-1.77,12.67,1.31,31.51,26.06,49.36,13.64,9.84,32.69,18.1,50.96,22.12,7.02,1.54,14.5,2.32,22.25,2.32,29.47,0,55.38-10.84,68.19-17.3,13.07-6.59,35.15-19.87,36.22-34.87.27-3.75-1-7.44-3.58-10.38-1.19-1.35-2.65-2.62-4.71-3.81,6.25-2.85,12.42-6.32,18.25-10.53,11.23,17.21,17.3,37.38,19.46,58.48l1.73.07c18.51.38,36.51,8.96,45.25,24.42,7.02,1.43,13.57,4.9,18.35,10.53,10.13,12.19,4.24,27.65-5.18,38.05,1.21-1.86,2.34-3.76,3.33-5.72ZM172.13,324.3c0-9.16-7.42-16.58-16.58-16.58s-16.58,7.42-16.58,16.58,7.42,16.58,16.58,16.58,16.58-7.42,16.58-16.58ZM520.48,396.15c-2.38,1.76-4.45,3.95-6.03,6.57-1.52,2.52-3.02,5.81-2.71,8.5.47,4.34,6.57,5.39,9.81,3.89,1.93-.86,2.52-2.35,2.98-4.2,1.15-4.76-.78-10.86-4.05-14.76Z"/>
</svg>