<?xml version="1.0" encoding="UTF-8"?>
<svg id="c" data-name="single color" xmlns="http://www.w3.org/2000/svg" viewBox="0 0 595.28 595.28">
  <defs>
    <style>
      .f {
        fill: #000;
        stroke-width: 0px;
      }
    </style>
  </defs>
  <path class="f" d="M300.29,216.74c-16.57,0-32.61,1.42-47.57,4.18-4.57-27.74-6.28-79.45,1.51-79.78,7.33-.31,19.86,41.85,19.86,41.85,0,0,2.84-82.99,28.37-100.01,5.23-3.49,17.73,41.85,17.73,41.85,0,0,27.66-75.9,74.48-101.43,7.7-4.2-52.88,90.14-74.33,194.01-6.65-.44-13.34-.67-20.05-.67ZM544.82,392.08s1.29,5.19,1.57,7.99c1.75,16.07-7.86,32.54-24.61,32.54-1.24,0-2.52-.09-3.83-.28-19.54-3.38-24.66-22.25-12.3-36.79,1.75-2.21,3.77-4.14,5.99-5.79-2.77-.82-5.71-1.12-8.73-1.12-2.53,0-5.12.22-7.72.53-7.84,88.9-78.96,182.21-111.5,182.21-12.35,0-19.15-13.46-14.81-45.7,0,0-39.26,4.14-64.96,3.57-25.7-.57-60.65-10.28-60.65-10.28-14.47,28.34-28.14,53.06-50.73,53.06s-9.1-74.44-27.93-84.77c-12.8-6.1-59.73-32.37-82.85-48.83-22.01-15.67-39.1-26.83-47.63-39.18s-.38-75.52,6.7-81.5c10.69-9.02,47.26-.04,62.43-12.86,54.04-45.68,70.59-47.8,70.59-47.8-1.06-32.36,2.94-44.01,11.33-44,8.73,0,22.21,12.64,39.66,27.68,22.44-8.17,48.59-12.01,75.46-12.01,8.75,0,17.58.42,26.38,1.22-12.3,6.1-24.2,12.75-34.31,20.82-18.11,14.44-28.34,31.7-31.28,52.75-1.77,12.67,1.31,31.51,26.06,49.36,13.64,9.84,32.69,18.1,50.96,22.12,7.02,1.54,14.5,2.32,22.25,2.32,29.47,0,55.38-10.84,68.19-17.3,13.07-6.59,35.15-19.87,36.22-34.87.27-3.75-1-7.44-3.58-10.38-1.19-1.35-2.65-2.62-4.71-3.81,6.31-2.88,12.55-6.4,18.44-10.67,12.11,17.72,18.41,37.73,20.34,58.65.06,0,.66.03.66.03,18.51.38,36.51,8.96,45.25,24.42,7.02,1.43,13.57,4.9,18.35,10.53,10.13,12.19,4.24,27.65-5.18,38.05,16.55-29.6-9.51-39.92-9.51-39.92ZM173.46,324.53c0-9.16-7.42-16.58-16.58-16.58s-16.58,7.42-16.58,16.58,7.42,16.58,16.58,16.58,16.58-7.42,16.58-16.58ZM521.8,396.39c-2.38,1.76-4.45,3.95-6.03,6.57-1.83,3.19-4.14,7.77-1.71,10.85,1.24,1.45,3.52,2.18,5.65,2.18,1.16,0,2.28-.22,3.16-.65,1.93-.86,2.52-2.35,2.98-4.2,1.15-4.76-.78-10.86-4.05-14.76ZM533.41,47.58c-2.85,0-65.39,109.68-134.15,158.04-47.86,33.66-118.2,41.65-126.3,99.58-4.23,30.27,38.18,51.61,67.71,58.1,6.42,1.41,13.04,2.04,19.68,2.04,45.04,0,91.59-29.03,92.44-41.02.61-8.54-60.2-12.24-60.2-12.24,0,0,.48.01,1.37.01,9.83,0,70.08-1.76,94.68-44.26.27-.47-1.52-.65-4.54-.65-11.87,0-42.77,2.87-42.77,2.87,0,0,44.05-7.41,76.98-79.98.82-1.82-2.49-2.47-7.71-2.47-13.52,0-39.78,4.4-39.78,4.4,0,0,51.1-44.12,62.68-144.12.02-.2,0-.3-.09-.3Z"/>
</svg>