<?xml version="1.0" encoding="UTF-8"?>
<svg id="d" data-name="multi color smiling" xmlns="http://www.w3.org/2000/svg" xmlns:xlink="http://www.w3.org/1999/xlink" viewBox="0 0 595.28 595.28">
  <defs>
    <style>
      .g, .h {
        fill: none;
      }

      .g, .i, .j {
        stroke-width: 0px;
      }

      .k {
        fill: #eaf5ff;
        stroke: #91a0ab;
      }

      .k, .h, .l, .m {
        stroke-linejoin: round;
        stroke-width: 5px;
      }

      .k, .l, .m {
        stroke-linecap: round;
      }

      .h, .l {
        stroke: #dd6f91;
      }

      .l {
        fill: #ffa9c0;
      }

      .i {
        fill: #000;
      }

      .j {
        fill: #93802f;
      }

      .m {
        fill: #dbca82;
        stroke: #93802f;
      }

      .n {
        clip-path: url(#e);
      }
    </style>
    <clipPath id="e">
      <path class="g" d="M279.19,251.89s34.62-7.96,115.94,12.82c102.09,26.1,30.56-140.12-75.15-140.12s-40.79,127.3-40.79,127.3Z"/>
    </clipPath>
  </defs>
  <path class="k" d="M384.45,23.16c7.9-4.31-56,94.99-75.9,201.93-3.07,16.49-42.69,40.31-61.71,11.58-7.24-10.93-12.79-95.34-2.84-95.76,7.33-.31,19.86,41.85,19.86,41.85,0,0,2.84-82.99,28.37-100.01,5.23-3.49,17.73,41.85,17.73,41.85,0,0,27.66-75.9,74.48-101.43Z"/>
  <path class="l" d="M557.51,425.69c7.57-14.39,4.43-29.6-12.39-34.11-.15-.04-.3-.06-.44-.1-.91-3.09-2.15-5.98-3.66-8.66,7.02,1.43,13.57,4.9,18.35,10.53,10.13,12.19,4.24,27.65-5.18,38.05,1.21-1.86,2.34-3.76,3.33-5.72ZM546.24,399.48c-.28-2.8-.83-5.46-1.57-7.99-.91-3.09-2.15-5.98-3.66-8.66-8.74-15.45-26.74-24.04-45.25-24.42l-1.84-.07c-3.05-29.2-13.62-56.62-35.01-76.81-42.61-40.22-129.88-63.41-200-49.39-9.14,1.83-34.3,8.38-34.3,8.38,0,0-32.82-30.77-42.58-28.33-9.76,2.44-8.4,44.65-8.4,44.65,0,0-16.55,2.13-70.59,47.8-15.16,12.82-55.87,4.6-64,13.75s-11.9,73.42-4.27,77.44c54.38,28.64,105.31-1.31,105.31-1.31,0,0-28.85,42.66-77.47,27.09-2.63,2.76,4.27,9.29,10.84,14.5,20.11,15.97,78.15,44.8,90.95,50.9,18.9,10.37,6.1,85.33,27.39,84.76,15.85.57,36.63-24.39,51.27-53.05,0,0,23.9,7.89,59.76,9.15,37.72,1.32,65.85-2.44,65.85-2.44-1.22,20.73-2.07,39.79,7.32,45.73,13.65,8.63,65.3-35.09,94.51-92.68,12.78-25.19,22.2-57.47,24.05-89.85,5.85-.74,11.7-1.01,16.95.53,3.6,1.06,6.91,2.97,9.76,6.17.14.15.27.31.4.47,3.27,3.9,5.2,10,4.05,14.76-.46,1.85-1.06,3.34-2.98,4.2-3.24,1.5-9.33.45-9.81-3.89-.31-2.68,1.19-5.97,2.71-8.5,1.58-2.63,3.65-4.81,6.03-6.57-.13-.16-.27-.04-.4-.19-2.85-3.2-6.16-5.4-9.76-6.45-2.22,1.65-4.24,3.58-5.99,5.79-12.36,14.53-7.24,33.41,12.3,36.79,19.09,2.72,30.32-15,28.44-32.26Z"/>
  <g class="n">
    <circle class="m" cx="330.04" cy="208.3" r="59.05"/>
    <path class="j" d="M327.25,244.69c-5.89-1.44-11.07-3.78-15.53-7.03-4.46-3.25-7.93-7.15-10.42-11.7-2.49-4.55-3.71-9.46-3.66-14.74l-8.62-1.79c-.45-.11-.85-.39-1.18-.85-.33-.46-.45-.91-.34-1.37.21-.57.73-1.18,1.58-1.83.84-.65,1.7-.91,2.56-.77l6.56,1.39c.01-.34.07-.71.16-1.09.09-.39.18-.74.26-1.07.11-.45.22-.91.33-1.36.11-.45.25-.9.43-1.34l-4.81-.97c-.46-.11-.86-.4-1.23-.87-.37-.47-.46-.92-.29-1.36.21-.57.74-1.19,1.59-1.88.85-.68,1.7-.92,2.54-.72l4.3.95c2.4-4.49,5.75-8.31,10.05-11.45,4.3-3.14,9.38-5.24,15.23-6.32,5.86-1.08,12.31-.75,19.37.97,2.78.68,5.68,1.75,8.69,3.2,3.01,1.45,5.56,2.95,7.65,4.49.45.39.83.82,1.12,1.3.29.48.39,1.09.28,1.82-.25,2.41-.57,4.65-.97,6.71-.4,2.06-.77,3.81-1.12,5.23-.14.58-.43.98-.85,1.18-.43.2-.9.24-1.42.12-.45-.11-.89-.37-1.3-.78-.41-.41-.65-.93-.7-1.56-.07-1.39-.21-2.87-.41-4.42-.2-1.56-.67-2.97-1.38-4.25-.56-1.1-1.36-2.15-2.42-3.16-1.06-1.01-2.36-1.93-3.91-2.75-1.55-.82-3.39-1.5-5.53-2.02-3.76-.92-7.27-.81-10.52.32-3.26,1.13-6.12,3-8.58,5.63-2.46,2.63-4.44,5.75-5.94,9.36l30.45,6.4c.52.13.89.44,1.11.94.22.5.29.91.21,1.24-.18.44-.8.97-1.88,1.6-1.08.63-2.15.85-3.2.66l-28.31-5.88c-.11.45-.21.87-.31,1.26-.09.39-.18.75-.26,1.07-.13.52-.24.99-.34,1.41-.1.42-.16.8-.17,1.14l27.61,5.81c.52.13.89.44,1.11.94.22.5.29.91.21,1.24-.18.44-.8.97-1.88,1.6-1.08.63-2.15.85-3.2.66l-24.5-5.05c-.27,4.19.04,7.97.94,11.35.89,3.38,2.5,6.2,4.83,8.49,2.33,2.28,5.4,3.89,9.22,4.82,3.11.76,5.87.97,8.29.63,2.41-.34,4.64-1.24,6.68-2.69,2.04-1.46,4.03-3.5,5.97-6.11.4-.52.84-.86,1.33-1.01.48-.16.95-.18,1.41-.07.45.11.82.36,1.11.73.28.38.36.83.24,1.34-.35,1.42-.9,3.07-1.67,4.95-.77,1.87-1.79,3.89-3.07,6.04-.64,1.22-1.69,1.99-3.14,2.32-1.74.4-3.67.63-5.78.7-2.11.07-4.37-.04-6.77-.31-2.4-.28-5-.76-7.78-1.44Z"/>
  </g>
  <path class="h" d="M279.72,244.39c-4.57,3.46-5.68,7.02,5.23,7,14.03-.04,85.03,4.51,110.17,13.33"/>
  <path class="k" d="M286.91,299.29c-4.23,30.27,38.18,51.61,67.71,58.1,50,10.98,111.14-25.22,112.12-38.98.61-8.54-60.2-12.24-60.2-12.24,0,0,69.22,2.1,96.05-44.24,1.34-2.31-47.32,2.22-47.32,2.22,0,0,44.05-7.41,76.98-79.98,2.96-6.53-47.49,1.93-47.49,1.93,0,0,51.1-44.12,62.68-144.12.81-6.96-63.41,107.93-134.24,157.74-47.86,33.65-118.2,41.65-126.3,99.58Z"/>
  <circle class="i" cx="156.66" cy="324.3" r="16.58"/>
</svg>